Coordinates
version=1
nRows=63
nColumns=11
inDegrees=no

Units are S.I. units (second, meters, Newtons, ...)
If the header above contains a line with 'inDegrees', this indicates whether rotational values are in degrees (yes) or radians (no).

endheader
time	pelvis_tilt	pelvis_tx	pelvis_ty	hip_flexion_r	knee_angle_r	ankle_angle_r	hip_flexion_l	knee_angle_l	ankle_angle_l	lumbar_extension
315.55	-0.0320489	0.341134	0.999733	-0.0459734	-0.121263	0.339842	0.377342	-0.160271	0.108457	0
315.56	-0.0183045	0.344285	0.999476	-0.0735887	-0.121244	0.349478	0.34661	-0.102649	0.110196	0
315.57	-0.0170383	0.344934	0.998211	-0.0849194	-0.121015	0.355336	0.331203	-0.047121	0.108146	0
315.58	-0.0162976	0.345678	0.997011	-0.0938258	-0.124434	0.363858	0.316978	0.00304366	0.105022	0
315.59	-0.0161647	0.34641	0.995746	-0.100523	-0.130213	0.370238	0.304851	0.0455704	0.10313	0
315.6	-0.0144895	0.347225	0.994502	-0.108774	-0.13736	0.3813	0.292446	0.0783567	0.105457	0
315.61	-0.0186384	0.347745	0.992635	-0.110135	-0.142554	0.390404	0.290831	0.0988061	0.110967	0
315.62	-0.0162608	0.349044	0.991547	-0.117032	-0.153007	0.40026	0.285292	0.101889	0.120522	0
315.63	-0.0143829	0.349859	0.990504	-0.119789	-0.169535	0.409013	0.283128	0.0922653	0.122327	0
315.64	-0.0164437	0.350198	0.989303	-0.118223	-0.185267	0.412364	0.285834	0.0771504	0.109903	0
315.65	-0.0161908	0.351078	0.988318	-0.119001	-0.202903	0.41604	0.286613	0.0590872	0.094007	0
315.66	-0.0165199	0.351999	0.987092	-0.11848	-0.221348	0.424403	0.290973	0.0386415	0.0827919	0
315.67	-0.0183015	0.352381	0.985816	-0.114011	-0.243299	0.429865	0.295645	0.0231915	0.0684019	0
315.68	-0.0277757	0.352129	0.984321	-0.100125	-0.263882	0.430025	0.30616	0.0143129	0.047451	0
315.69	-0.014291	0.356185	0.984822	-0.115845	-0.286605	0.436619	0.284078	0.00873286	0.0307441	0
315.7	-0.00758806	0.358785	0.985041	-0.12124	-0.311797	0.435817	0.268785	0.00712382	0.00857966	0
315.71	-0.00721043	0.360637	0.98479	-0.118749	-0.335557	0.428608	0.262646	0.00525233	-0.00696155	0
315.72	-0.00624148	0.362111	0.984816	-0.114875	-0.363438	0.417696	0.258265	-0.00146879	-0.0114452	0
315.73	-0.005445	0.363673	0.984867	-0.10797	-0.396142	0.405235	0.255088	-0.0127555	-0.00527039	0
315.74	-0.00322906	0.365214	0.985391	-0.0979265	-0.435887	0.392757	0.249974	-0.0244813	0.00283403	0
315.75	3.37324e-05	0.366594	0.98663	-0.0843537	-0.483872	0.374812	0.243401	-0.0364697	0.0112869	0
315.76	-0.000847709	0.36786	0.987931	-0.0614462	-0.537136	0.344859	0.239479	-0.0449094	0.0200739	0
315.77	-0.0143565	0.365543	0.988516	-0.0172572	-0.597707	0.306118	0.247618	-0.0480149	0.0265945	0
315.78	-0.00338239	0.369079	0.990685	-0.00548745	-0.65294	0.262012	0.220943	-0.0444111	0.0383135	0
315.79	-0.00342602	0.369966	0.991908	0.0259953	-0.714438	0.207385	0.208066	-0.0384129	0.0421333	0
315.8	-0.00449941	0.370499	0.993114	0.0613352	-0.776531	0.146896	0.197842	-0.0333676	0.0456346	0
315.81	-0.0157088	0.368485	0.993466	0.115438	-0.844525	0.0891681	0.201124	-0.0290436	0.0486575	0
315.82	-0.0145914	0.368925	0.994834	0.149641	-0.902416	0.0384881	0.186283	-0.0234251	0.0592465	0
315.83	-0.00448736	0.371188	0.996814	0.167948	-0.94966	-0.00514157	0.161148	-0.0196962	0.07318	0
315.84	-0.01836	0.368293	0.996146	0.224241	-1.00565	-0.0225641	0.166019	-0.00983991	0.0714595	0
315.85	-0.0190879	0.36873	0.996664	0.255699	-1.04759	-0.0175928	0.151667	0.00228197	0.0729894	0
315.86	-0.00507795	0.372319	0.99889	0.258558	-1.07291	0.00129664	0.114061	0.0190675	0.0799581	0
315.87	-0.0195053	0.368774	0.998187	0.310007	-1.11272	0.0255159	0.118211	0.0305114	0.0779337	0
315.88	-0.00474546	0.372052	1.0006	0.310182	-1.12634	0.041497	0.0803095	0.0458762	0.0881208	0
315.89	-0.00242327	0.372204	1.00157	0.331778	-1.14468	0.0532222	0.0585987	0.0633888	0.0898621	0
315.9	-0.001435	0.371853	1.00247	0.354628	-1.15881	0.0607061	0.0411178	0.0769413	0.0915929	0
315.91	0.000420082	0.372052	1.00363	0.373183	-1.16473	0.0635708	0.0236609	0.0873979	0.0932562	0
315.92	0.00188632	0.372307	1.0047	0.390206	-1.16535	0.065967	0.0084107	0.0949899	0.0944958	0
315.93	-0.000797642	0.370927	1.00542	0.41363	-1.1633	0.0664398	0.00220462	0.097674	0.0999898	0
315.94	-0.0189984	0.365992	1.00446	0.461309	-1.16411	0.0682078	0.0194	0.0967081	0.0989767	0
315.95	-0.0017089	0.369599	1.00731	0.446454	-1.1379	0.0640032	-0.00872185	0.0898036	0.114687	0
315.96	-0.0188413	0.365171	1.00634	0.488974	-1.12746	0.0642011	0.0127748	0.0782975	0.118448	0
315.97	-0.0209789	0.363792	1.00694	0.502963	-1.10348	0.0680047	0.0117612	0.0691999	0.127774	0
315.98	-0.0336341	0.360238	1.00617	0.533973	-1.08101	0.067711	0.0285714	0.0551567	0.130236	0
315.99	-0.0066232	0.365165	1.00978	0.493581	-1.0299	0.0648106	-0.0141635	0.050516	0.153494	0
316	-0.00456967	0.364956	1.01029	0.495389	-0.990982	0.0711506	-0.023958	0.0480575	0.162614	0
316.01	-0.00689092	0.363729	1.01048	0.501894	-0.948779	0.0798954	-0.0272293	0.0443406	0.165918	0
316.02	-0.0252236	0.3605	1.00883	0.532592	-0.908137	0.0861737	-0.00856489	0.0434849	0.166295	0
316.03	-0.0124692	0.362005	1.01003	0.510882	-0.854151	0.0896866	-0.0300134	0.0333173	0.183222	0
316.04	-0.0286698	0.357852	1.00818	0.531949	-0.806766	0.0978325	-0.0139097	0.0274788	0.188355	0
316.05	-0.0107481	0.3614	1.00983	0.500658	-0.747691	0.102106	-0.0424516	0.021178	0.20551	0
316.06	-0.0102582	0.361247	1.0096	0.494746	-0.693153	0.110055	-0.0512513	0.0210038	0.212987	0
316.07	-0.0115283	0.36082	1.00899	0.491057	-0.639502	0.110854	-0.0579572	0.0211745	0.216607	0
316.08	-0.0292772	0.357139	1.00633	0.511509	-0.59057	0.110078	-0.0408514	0.018009	0.220816	0
316.09	-0.0302154	0.356883	1.0052	0.50714	-0.53812	0.105174	-0.0480746	0.017333	0.230813	0
316.1	-0.0298957	0.356966	1.00416	0.499114	-0.484031	0.104717	-0.0598235	0.0216768	0.237686	0
316.11	-0.0301704	0.356963	1.00296	0.489818	-0.428457	0.104749	-0.0723024	0.0282004	0.243562	0
316.12	-0.0296249	0.357238	1.002	0.479216	-0.374378	0.106226	-0.0847839	0.032469	0.251008	0
316.13	-0.0294489	0.357596	1.00093	0.468982	-0.321803	0.107263	-0.0919961	0.027624	0.261984	0
316.14	-0.0301319	0.357795	0.999336	0.460318	-0.272215	0.111863	-0.0974576	0.0218955	0.274583	0
316.15	-0.0134361	0.361215	0.999359	0.427454	-0.222302	0.121931	-0.129416	0.0226274	0.288299	0
316.16	-0.0109276	0.362128	0.99843	0.413109	-0.175959	0.127236	-0.147887	0.0335119	0.290538	0
316.17	-0.00709144	0.362804	0.997675	0.399588	-0.137018	0.12537	-0.163251	0.0353951	0.295674	0
